<svg width="1000" height="141" viewBox="0 0 1000 141" fill="none" xmlns="http://www.w3.org/2000/svg">
<path d="M61.739 59.8709L56.2436 67.1624C55.6181 67.9309 55.0195 68.5385 54.4476 68.9853C53.8578 69.432 53.0268 69.6554 51.9545 69.6554C50.9359 69.6554 50.0066 69.4052 49.1666 68.9048C48.3445 68.4223 47.4242 67.8772 46.4055 67.2696C45.369 66.662 44.1627 66.1169 42.7866 65.6344C41.3926 65.134 39.668 64.8838 37.6129 64.8838C35.0751 64.8838 32.877 65.3574 31.0184 66.3046C29.1598 67.2339 27.6318 68.5742 26.4344 70.3256C25.2191 72.0591 24.3256 74.1947 23.7537 76.7324C23.164 79.2523 22.8691 82.0938 22.8691 85.257C22.8691 91.923 24.1558 97.0431 26.7293 100.617C29.3027 104.192 32.8412 105.979 37.3448 105.979C39.7574 105.979 41.6696 105.675 43.0815 105.067C44.4754 104.46 45.6728 103.79 46.6736 103.057C47.6565 102.324 48.559 101.645 49.3811 101.019C50.2031 100.394 51.2397 100.081 52.4907 100.081C54.1527 100.081 55.4037 100.68 56.2436 101.877L62.2752 109.33C60.1306 111.778 57.8788 113.78 55.5198 115.334C53.143 116.871 50.7125 118.078 48.2284 118.953C45.7443 119.829 43.2602 120.428 40.7761 120.749C38.2741 121.089 35.8347 121.259 33.4578 121.259C29.2223 121.259 25.1655 120.454 21.2875 118.846C17.4273 117.238 14.0317 114.905 11.1009 111.849C8.18785 108.776 5.86459 105.005 4.13108 100.537C2.41544 96.0691 1.55762 90.9758 1.55762 85.257C1.55762 80.2531 2.30821 75.5798 3.80939 71.237C5.31058 66.8765 7.51768 63.0967 10.4307 59.8977C13.3616 56.6988 16.9805 54.1879 21.2875 52.365C25.6123 50.5243 30.6073 49.6039 36.2725 49.6039C41.7232 49.6039 46.5038 50.4796 50.6142 52.231C54.7246 53.9645 58.4329 56.5111 61.739 59.8709ZM102.217 49.6039C107.489 49.6039 112.288 50.4349 116.613 52.0969C120.955 53.7411 124.682 56.109 127.791 59.2008C130.883 62.2746 133.296 66.0186 135.029 70.4328C136.745 74.8292 137.602 79.7706 137.602 85.257C137.602 90.7971 136.745 95.7921 135.029 100.242C133.296 104.692 130.883 108.472 127.791 111.581C124.682 114.673 120.955 117.059 116.613 118.739C112.288 120.419 107.489 121.259 102.217 121.259C96.8918 121.259 92.0576 120.419 87.7149 118.739C83.3543 117.059 79.5924 114.673 76.4292 111.581C73.2839 108.472 70.8534 104.692 69.1377 100.242C67.4221 95.7921 66.5643 90.7971 66.5643 85.257C66.5643 79.7706 67.4221 74.8292 69.1377 70.4328C70.8534 66.0186 73.2839 62.2746 76.4292 59.2008C79.5924 56.109 83.3543 53.7411 87.7149 52.0969C92.0576 50.4349 96.8918 49.6039 102.217 49.6039ZM102.217 105.845C106.989 105.845 110.501 104.156 112.753 100.778C115.022 97.4005 116.157 92.2715 116.157 85.3911C116.157 78.5285 115.022 73.4173 112.753 70.0575C110.501 66.6977 106.989 65.0178 102.217 65.0178C97.3028 65.0178 93.7018 66.6977 91.4142 70.0575C89.1446 73.4173 88.0098 78.5285 88.0098 85.3911C88.0098 92.2715 89.1446 97.4005 91.4142 100.778C93.7018 104.156 97.3028 105.845 102.217 105.845ZM169.771 120.186H148.995V50.6762H161.836C163.14 50.6762 164.231 50.971 165.106 51.5608C165.982 52.1327 166.599 52.9994 166.956 54.1611L168.162 58.1821C169.503 56.9311 170.888 55.7695 172.317 54.6972C173.747 53.6249 175.275 52.7224 176.901 51.9897C178.528 51.257 180.288 50.6762 182.182 50.2473C184.094 49.8184 186.168 49.6039 188.401 49.6039C192.19 49.6039 195.55 50.2651 198.481 51.5876C201.412 52.9101 203.878 54.7419 205.88 57.083C207.899 59.4241 209.418 62.221 210.437 65.4736C211.473 68.7083 211.992 72.22 211.992 76.0087V120.186H191.216V76.0087C191.216 72.6131 190.43 69.9682 188.857 68.0738C187.302 66.1795 184.997 65.2323 181.941 65.2323C179.671 65.2323 177.536 65.7238 175.534 66.7067C173.515 67.6896 171.594 69.0031 169.771 70.6473V120.186ZM251.103 121.259C247.797 121.259 244.884 120.776 242.364 119.811C239.844 118.846 237.726 117.488 236.01 115.736C234.277 113.967 232.963 111.832 232.07 109.33C231.176 106.828 230.73 104.031 230.73 100.939V65.0178H224.832C223.76 65.0178 222.848 64.6783 222.098 63.9992C221.329 63.3022 220.945 62.2835 220.945 60.9432V52.8207L232.016 50.6762L236.091 33.7342C236.627 31.5897 238.146 30.5174 240.648 30.5174H251.505V50.8102H268.393V65.0178H251.505V99.5451C251.505 101.154 251.898 102.485 252.684 103.539C253.471 104.576 254.597 105.094 256.062 105.094C256.83 105.094 257.474 105.023 257.992 104.88C258.492 104.719 258.939 104.54 259.332 104.344C259.708 104.129 260.065 103.95 260.405 103.807C260.726 103.647 261.111 103.566 261.557 103.566C262.183 103.566 262.692 103.709 263.085 103.995C263.461 104.281 263.845 104.737 264.238 105.362L270.538 115.227C267.857 117.229 264.846 118.739 261.504 119.757C258.144 120.758 254.677 121.259 251.103 121.259ZM280.992 50.6762H301.768V120.186H280.992V50.6762ZM304.18 31.6701C304.18 33.3143 303.85 34.8601 303.188 36.3077C302.509 37.7553 301.589 39.0331 300.427 40.1411C299.266 41.2312 297.916 42.098 296.38 42.7413C294.843 43.3847 293.198 43.7064 291.447 43.7064C289.749 43.7064 288.168 43.3847 286.702 42.7413C285.219 42.098 283.905 41.2312 282.762 40.1411C281.636 39.0331 280.742 37.7553 280.081 36.3077C279.438 34.8601 279.116 33.3143 279.116 31.6701C279.116 29.9545 279.438 28.3639 280.081 26.8985C280.742 25.4152 281.636 24.1195 282.762 23.0115C283.905 21.8856 285.219 21.0099 286.702 20.3844C288.168 19.7589 289.749 19.4462 291.447 19.4462C293.198 19.4462 294.843 19.7589 296.38 20.3844C297.916 21.0099 299.266 21.8856 300.427 23.0115C301.589 24.1195 302.509 25.4152 303.188 26.8985C303.85 28.3639 304.18 29.9545 304.18 31.6701ZM339.297 120.186H318.522V50.6762H331.389C332.676 50.6762 333.757 50.971 334.633 51.5608C335.509 52.1327 336.125 52.9994 336.483 54.1611L337.689 58.1821C339.029 56.9311 340.414 55.7695 341.844 54.6972C343.274 53.6249 344.802 52.7224 346.428 51.9897C348.054 51.257 349.823 50.6762 351.736 50.2473C353.63 49.8184 355.694 49.6039 357.928 49.6039C361.717 49.6039 365.077 50.2651 368.007 51.5876C370.938 52.9101 373.405 54.7419 375.406 57.083C377.426 59.4241 378.945 62.221 379.963 65.4736C381 68.7083 381.518 72.22 381.518 76.0087V120.186H360.743V76.0087C360.743 72.6131 359.956 69.9682 358.384 68.0738C356.829 66.1795 354.533 65.2323 351.494 65.2323C349.207 65.2323 347.062 65.7238 345.061 66.7067C343.041 67.6896 341.12 69.0031 339.297 70.6473V120.186ZM394.922 50.6762H415.697V94.8003C415.697 98.2316 416.474 100.885 418.029 102.762C419.602 104.638 421.907 105.577 424.945 105.577C427.215 105.577 429.342 105.103 431.325 104.156C433.327 103.227 435.266 101.913 437.142 100.215V50.6762H457.918V120.186H445.05C442.459 120.186 440.761 119.025 439.957 116.701L438.67 112.68C437.33 113.967 435.945 115.138 434.515 116.192C433.086 117.247 431.558 118.14 429.931 118.873C428.305 119.606 426.554 120.186 424.677 120.615C422.801 121.044 420.746 121.259 418.512 121.259C414.705 121.259 411.336 120.597 408.405 119.275C405.492 117.97 403.026 116.13 401.007 113.753C399.005 111.376 397.486 108.579 396.45 105.362C395.431 102.145 394.922 98.6247 394.922 94.8003V50.6762ZM504.937 49.6039C510.209 49.6039 515.016 50.4349 519.359 52.0969C523.684 53.7411 527.401 56.109 530.511 59.2008C533.62 62.2746 536.033 66.0186 537.749 70.4328C539.464 74.8292 540.322 79.7706 540.322 85.257C540.322 90.7971 539.464 95.7921 537.749 100.242C536.033 104.692 533.62 108.472 530.511 111.581C527.401 114.673 523.684 117.059 519.359 118.739C515.016 120.419 510.209 121.259 504.937 121.259C499.629 121.259 494.795 120.419 490.434 118.739C486.074 117.059 482.321 114.673 479.176 111.581C476.03 108.472 473.6 104.692 471.884 100.242C470.151 95.7921 469.284 90.7971 469.284 85.257C469.284 79.7706 470.151 74.8292 471.884 70.4328C473.6 66.0186 476.03 62.2746 479.176 59.2008C482.321 56.109 486.074 53.7411 490.434 52.0969C494.795 50.4349 499.629 49.6039 504.937 49.6039ZM504.937 105.845C509.726 105.845 513.247 104.156 515.499 100.778C517.751 97.4005 518.877 92.2715 518.877 85.3911C518.877 78.5285 517.751 73.4173 515.499 70.0575C513.247 66.6977 509.726 65.0178 504.937 65.0178C500.022 65.0178 496.43 66.6977 494.161 70.0575C491.873 73.4173 490.729 78.5285 490.729 85.3911C490.729 92.2715 491.873 97.4005 494.161 100.778C496.43 104.156 500.022 105.845 504.937 105.845ZM550.375 50.6762H571.15V94.8003C571.15 98.2316 571.936 100.885 573.509 102.762C575.064 104.638 577.36 105.577 580.398 105.577C582.686 105.577 584.821 105.103 586.805 104.156C588.789 103.227 590.719 101.913 592.595 100.215V50.6762H613.371V120.186H600.503C597.912 120.186 596.214 119.025 595.41 116.701L594.15 112.68C592.81 113.967 591.425 115.138 589.995 116.192C588.565 117.247 587.029 118.14 585.384 118.873C583.758 119.606 582.007 120.186 580.13 120.615C578.254 121.044 576.199 121.259 573.965 121.259C570.176 121.259 566.816 120.597 563.885 119.275C560.954 117.97 558.488 116.13 556.487 113.753C554.467 111.376 552.948 108.579 551.929 105.362C550.893 102.145 550.375 98.6247 550.375 94.8003V50.6762ZM676.635 58.5842L671.944 65.9025C671.408 66.7424 670.836 67.3411 670.228 67.6985C669.62 68.056 668.852 68.2347 667.923 68.2347C666.94 68.2347 665.957 68.0291 664.974 67.6181C663.991 67.1892 662.928 66.7246 661.784 66.2242C660.64 65.7416 659.353 65.2859 657.924 64.857C656.494 64.4281 654.868 64.2136 653.045 64.2136C650.4 64.2136 648.381 64.723 646.987 65.7416C645.575 66.7424 644.869 68.1364 644.869 69.9235C644.869 71.2102 645.325 72.2825 646.236 73.1403C647.147 73.9981 648.363 74.7487 649.882 75.3921C651.401 76.0355 653.125 76.6431 655.055 77.215C656.968 77.8047 658.933 78.457 660.953 79.1719C662.955 79.8867 664.92 80.7267 666.85 81.6917C668.763 82.6389 670.478 83.8184 671.997 85.2302C673.516 86.6421 674.741 88.3488 675.67 90.3503C676.581 92.3698 677.037 94.7824 677.037 97.5882C677.037 101.037 676.412 104.209 675.161 107.105C673.91 110.018 672.042 112.52 669.558 114.611C667.074 116.719 664.018 118.355 660.39 119.516C656.744 120.678 652.553 121.259 647.818 121.259C645.441 121.259 643.073 121.035 640.714 120.588C638.337 120.142 636.049 119.534 633.851 118.766C631.635 118.015 629.589 117.113 627.712 116.058C625.836 115.004 624.228 113.878 622.887 112.68L627.712 105.04C628.284 104.147 628.972 103.441 629.777 102.923C630.581 102.404 631.635 102.145 632.94 102.145C634.137 102.145 635.218 102.413 636.183 102.95C637.148 103.486 638.185 104.067 639.293 104.692C640.419 105.318 641.732 105.898 643.234 106.434C644.717 106.971 646.602 107.239 648.89 107.239C650.498 107.239 651.856 107.078 652.964 106.756C654.09 106.417 654.984 105.952 655.645 105.362C656.324 104.79 656.816 104.147 657.12 103.432C657.441 102.717 657.602 101.976 657.602 101.207C657.602 99.831 657.128 98.6962 656.181 97.8026C655.252 96.9091 654.028 96.1406 652.509 95.4973C650.99 94.836 649.256 94.2284 647.308 93.6744C645.36 93.1204 643.385 92.4859 641.384 91.7711C639.364 91.0563 637.39 90.1984 635.46 89.1976C633.512 88.179 631.778 86.9012 630.259 85.3643C628.74 83.8273 627.507 81.9419 626.56 79.708C625.63 77.4741 625.166 74.7666 625.166 71.5855C625.166 68.6368 625.738 65.8399 626.881 63.195C628.007 60.5322 629.714 58.191 632.002 56.1716C634.271 54.17 637.131 52.5795 640.58 51.4C644.011 50.2026 648.032 49.6039 652.643 49.6039C655.145 49.6039 657.566 49.8273 659.907 50.2741C662.249 50.7208 664.447 51.3463 666.502 52.1506C668.557 52.9548 670.434 53.9109 672.131 55.0189C673.829 56.109 675.33 57.2975 676.635 58.5842ZM750.086 120.186H737.219C735.914 120.186 734.824 119.891 733.948 119.302C733.09 118.73 732.483 117.863 732.125 116.701L730.517 111.394C729.123 112.877 727.666 114.217 726.147 115.415C724.628 116.63 722.984 117.675 721.215 118.551C719.463 119.409 717.569 120.079 715.532 120.562C713.494 121.026 711.296 121.259 708.937 121.259C705.309 121.259 701.958 120.454 698.885 118.846C695.793 117.238 693.13 114.914 690.896 111.876C688.662 108.838 686.911 105.121 685.642 100.725C684.373 96.3104 683.739 91.2886 683.739 85.6591C683.739 80.4765 684.454 75.6691 685.883 71.237C687.313 66.7871 689.333 62.9448 691.942 59.7101C694.551 56.4575 697.687 53.9198 701.351 52.0969C705.015 50.2562 709.062 49.3358 713.494 49.3358C717.069 49.3358 720.089 49.863 722.555 50.9174C725.039 51.9718 727.291 53.3479 729.31 55.0457V19.8483H750.086V120.186ZM716.175 105.309C717.694 105.309 719.061 105.166 720.277 104.88C721.51 104.576 722.644 104.156 723.681 103.62C724.7 103.084 725.665 102.413 726.576 101.609C727.505 100.805 728.417 99.8668 729.31 98.7945V69.3069C727.702 67.5734 725.986 66.3582 724.164 65.6612C722.359 64.9642 720.455 64.6157 718.454 64.6157C716.524 64.6157 714.754 65 713.146 65.7684C711.538 66.519 710.144 67.7343 708.964 69.4142C707.785 71.0941 706.855 73.2744 706.176 75.955C705.515 78.6357 705.184 81.8704 705.184 85.6591C705.184 89.3227 705.452 92.4055 705.988 94.9075C706.525 97.4095 707.266 99.4379 708.214 100.993C709.179 102.53 710.331 103.629 711.672 104.29C713.012 104.969 714.513 105.309 716.175 105.309ZM779.949 120.186H766.143V19.8483H786.918V58.0481C789.51 55.5103 792.45 53.473 795.738 51.9361C799.026 50.3813 802.877 49.6039 807.292 49.6039C810.919 49.6039 814.27 50.3902 817.344 51.9629C820.436 53.5177 823.099 55.8052 825.333 58.8255C827.567 61.8457 829.318 65.545 830.587 69.9235C831.856 74.302 832.49 79.2791 832.49 84.8549C832.49 90.0912 831.766 94.9164 830.319 99.3306C828.871 103.763 826.843 107.605 824.234 110.858C821.607 114.128 818.479 116.675 814.851 118.498C811.205 120.338 807.167 121.259 802.734 121.259C800.679 121.259 798.839 121.062 797.212 120.669C795.586 120.258 794.094 119.686 792.736 118.953C791.359 118.203 790.108 117.318 788.983 116.299C787.839 115.281 786.731 114.164 785.659 112.949L784.908 116.433C784.604 117.863 784.041 118.846 783.219 119.382C782.379 119.918 781.289 120.186 779.949 120.186ZM800.054 65.2323C798.535 65.2323 797.168 65.3753 795.952 65.6612C794.719 65.9472 793.575 66.3582 792.521 66.8943C791.467 67.4305 790.493 68.1185 789.599 68.9585C788.706 69.7805 787.812 70.7277 786.918 71.8V101.288C788.491 103.021 790.189 104.236 792.012 104.933C793.853 105.63 795.774 105.979 797.775 105.979C799.705 105.979 801.475 105.595 803.083 104.826C804.691 104.075 806.085 102.86 807.265 101.18C808.444 99.5004 809.374 97.3201 810.053 94.6394C810.714 91.9587 811.045 88.6972 811.045 84.8549C811.045 81.1913 810.777 78.1085 810.24 75.6066C809.704 73.1046 808.963 71.0851 808.016 69.5482C807.05 68.0113 805.898 66.9033 804.557 66.2242C803.217 65.5629 801.716 65.2323 800.054 65.2323Z" fill="black"/>
<g clip-path="url(#clip0_23_166)">
<path d="M888.527 11H856V130H888.527V11Z" fill="#0196FF"/>
<path d="M898.84 11H931.367V130H898.84V11Z" fill="url(#paint0_linear_23_166)" fill-opacity="0.75"/>
<path d="M975.397 11H942.87V130H975.397V11Z" fill="#FF1F57"/>
</g>
<defs>
<linearGradient id="paint0_linear_23_166" x1="898.443" y1="64.55" x2="931.763" y2="64.55" gradientUnits="userSpaceOnUse">
<stop stop-color="#0196FF"/>
<stop offset="0.517857" stop-color="#8956A5"/>
<stop offset="1" stop-color="#FF1F57"/>
</linearGradient>
<clipPath id="clip0_23_166">
<rect width="119" height="119" fill="white" transform="translate(856 11)"/>
</clipPath>
</defs>
</svg>
